<?xml version="1.0" standalone="no"?><svg xmlns="http://www.w3.org/2000/svg" viewBox="0 0 1440 320"><path fill="#e2edff" fill-opacity="1" d="M0,64L40,90.7C80,117,160,171,240,186.7C320,203,400,181,480,197.3C560,213,640,267,720,266.7C800,267,880,213,960,165.3C1040,117,1120,75,1200,80C1280,85,1360,139,1400,165.3L1440,192L1440,320L1400,320C1360,320,1280,320,1200,320C1120,320,1040,320,960,320C880,320,800,320,720,320C640,320,560,320,480,320C400,320,320,320,240,320C160,320,80,320,40,320L0,320Z"></path></svg>